<svg version="1.1" id="Layer_1" xmlns="http://www.w3.org/2000/svg" xmlns:xlink="http://www.w3.org/1999/xlink" x="0px" y="0px"
	 width="100%" viewBox="0 0 450 450" enable-background="new 0 0 450 450" xml:space="preserve">
<path fill="#000000" opacity="1.000000" stroke="none" 
	d="
M1.000000,220.000000 
	C1.000000,147.034103 1.000000,74.068199 1.000000,1.051150 
	C150.895813,1.051150 300.791656,1.051150 451.000000,1.051150 
	C451.000000,89.021187 451.000000,177.042740 450.580994,265.529297 
	C446.467438,265.321014 442.772888,264.647736 439.164185,263.612915 
	C442.198120,258.888702 442.333435,254.013184 441.916748,248.632904 
	C441.000214,245.804794 440.010895,243.367538 439.017944,240.501221 
	C438.956177,238.062424 438.898010,236.052673 438.910095,233.619080 
	C439.637115,228.394012 441.399261,223.522797 438.143127,218.626923 
	C438.878082,211.747620 433.117218,208.543671 430.153076,204.177917 
	C426.830383,199.284149 420.871033,196.272141 416.603607,191.908691 
	C408.356750,183.476349 398.056091,178.594208 387.189789,175.267365 
	C369.096649,169.727997 350.923462,171.320862 332.995422,176.497101 
	C332.976715,147.126007 332.944672,118.220207 333.025696,89.314720 
	C333.046112,82.037239 333.355957,74.770821 330.219879,67.825104 
	C329.602661,67.098648 328.809082,66.529411 327.641479,65.950684 
	C323.508728,64.912300 319.749969,63.883400 315.933014,62.532265 
	C313.400635,60.028648 312.516968,61.530716 311.557007,63.947861 
	C300.997559,65.085777 290.866516,66.035324 280.769409,67.264008 
	C268.918762,68.706085 257.107697,70.471436 245.260895,71.947334 
	C233.569489,73.403885 221.852112,74.651192 210.152985,76.047737 
	C208.126297,76.289658 205.673065,76.214661 204.214798,77.329659 
	C200.383621,80.258972 198.101318,84.454132 198.023270,89.345573 
	C197.866760,99.153595 198.023819,108.966629 197.722198,118.947601 
	C193.807281,121.989960 190.278976,124.937759 186.622772,127.717346 
	C180.813156,132.134048 174.857483,136.360291 169.094406,140.835571 
	C167.241302,142.274582 165.800873,144.245026 164.098541,146.427505 
	C164.018402,148.525970 164.032089,150.169662 164.001038,151.812500 
	C163.768661,164.108688 169.869370,163.011139 177.644608,160.725174 
	C178.513947,160.469589 179.220718,159.660980 180.215866,159.439423 
	C185.736740,160.930634 191.141159,162.608627 195.478485,157.151764 
	C197.152542,158.225876 198.537140,159.164261 199.955933,160.532471 
	C199.936584,163.250107 199.883026,165.537903 199.539978,168.021667 
	C198.385941,169.135574 197.678040,170.326065 196.631577,170.927643 
	C189.357635,175.109146 189.335098,175.069931 191.147568,182.884857 
	C191.780869,183.454086 192.388077,183.734375 193.289108,184.113586 
	C194.128250,184.493958 194.673538,184.775436 195.148407,185.491669 
	C195.266891,190.528061 194.725739,195.301102 198.103607,199.587799 
	C198.018707,208.646088 198.010117,217.252533 197.689468,226.024628 
	C194.905258,227.511765 192.433090,228.833237 189.654129,230.133987 
	C188.947250,230.762024 188.547195,231.410797 187.971207,232.379089 
	C180.892456,237.294357 172.825470,237.782913 164.650040,239.084839 
	C159.847046,236.347351 155.115173,234.057678 151.032486,230.922607 
	C145.842621,226.937317 140.874451,225.376648 134.237991,227.407867 
	C126.074394,229.906509 117.531738,231.166626 109.085960,232.571808 
	C107.504517,230.791946 106.003395,228.256653 104.472923,228.238800 
	C100.677063,228.194534 99.540710,226.489517 99.957306,222.142883 
	C97.007256,223.186859 94.876930,224.071411 92.669678,224.674271 
	C91.282066,225.053284 89.714111,225.355804 88.338867,225.097458 
	C81.577637,223.827393 74.853821,222.358078 68.028534,220.706635 
	C67.633270,220.358704 67.326263,220.263229 66.602402,220.093536 
	C63.101673,220.443008 61.556847,219.404068 60.862797,216.047394 
	C60.133163,212.518631 58.337856,209.210190 57.023140,205.431915 
	C56.312935,203.059418 55.587822,201.060486 54.931038,198.661713 
	C53.016407,194.480759 51.033451,190.699677 49.022903,186.518280 
	C48.565228,181.095993 48.135139,176.073990 47.631828,170.196991 
	C47.665401,170.168060 48.752670,169.231003 49.424904,168.651642 
	C48.143517,166.914291 46.017483,165.346252 46.146782,163.993805 
	C46.987465,155.200500 44.480080,148.086212 37.219105,142.855164 
	C36.931942,142.469193 36.474808,142.210220 35.607918,141.938202 
	C30.593206,139.770905 26.319069,141.427460 21.877333,142.865906 
	C20.791960,143.769943 19.872719,144.875183 18.856258,146.330627 
	C16.840252,153.767197 15.008410,160.878891 12.954920,167.926025 
	C12.248446,170.350494 10.988787,172.613754 9.850214,174.779266 
	C9.497136,175.083755 9.275683,175.559616 9.026152,176.404419 
	C8.255883,178.359299 7.459123,179.922348 6.782637,181.535828 
	C5.278662,185.122940 6.078871,187.758957 9.910960,189.362366 
	C7.531083,199.003387 5.300974,208.297348 2.939011,217.557648 
	C2.704565,218.476822 1.665578,219.190796 1.000000,220.000000 
z"/>
<path fill="#000000" opacity="1.000000" stroke="none" 
	d="
M451.000000,275.000000 
	C451.000000,333.635986 451.000000,392.271973 451.000000,450.953979 
	C301.109161,450.953979 151.218277,450.953979 1.000000,450.953979 
	C1.000000,380.979431 1.000000,310.958374 1.447041,240.462738 
	C6.976191,239.776520 12.495359,241.919830 16.703856,237.025970 
	C17.508705,236.090073 18.882263,235.643250 19.990524,235.371307 
	C19.182785,239.128998 18.366529,242.483475 17.575075,245.843781 
	C13.710841,262.250305 12.694916,278.754730 15.944324,295.392792 
	C16.920551,300.391388 18.284409,305.334564 18.933754,310.372345 
	C20.174894,320.001404 20.687332,329.733856 22.186354,339.316376 
	C22.974730,344.356049 25.208611,349.169617 26.881268,354.532471 
	C26.072567,362.696533 29.962839,369.537903 30.652264,377.041595 
	C29.406113,380.951996 28.487251,384.725250 27.492489,388.810181 
	C32.864532,388.810181 37.268250,388.810181 42.980721,388.810181 
	C41.098011,384.498627 39.481907,380.797607 37.927383,376.625488 
	C37.955368,368.802734 37.921780,361.451111 37.927963,353.640564 
	C37.990032,351.027100 37.898518,348.864410 38.052509,346.719391 
	C39.359745,328.509949 40.711693,310.303711 42.302353,292.169250 
	C42.780212,292.509827 43.005947,292.777679 43.219856,293.416138 
	C44.500263,297.501495 46.029690,301.152893 47.042885,304.942291 
	C51.023842,319.831177 54.733932,334.808563 62.719440,348.230255 
	C63.404324,349.381378 64.739220,350.145752 65.874695,351.474426 
	C68.373306,360.249664 70.769371,368.640259 72.963150,377.403351 
	C72.442200,381.415039 72.123535,385.054260 71.795670,388.798645 
	C80.197693,388.798645 87.739059,388.798645 95.883049,388.798645 
	C94.960861,387.000427 94.556694,385.271454 93.474960,384.286926 
	C90.701904,381.763000 87.682281,379.494812 84.642456,377.287994 
	C83.666176,376.579254 82.318787,376.381714 81.077141,375.548340 
	C78.701759,366.373657 76.390427,357.600861 74.062286,348.401428 
	C72.932693,339.158600 71.756821,330.349762 70.723083,321.524323 
	C69.421555,310.412598 68.243942,299.286469 66.998589,288.168121 
	C65.734795,276.885315 64.863365,265.537964 63.047134,254.344299 
	C61.656895,245.776108 59.063110,237.403198 57.412121,228.958969 
	C67.708900,229.962097 77.598206,230.949677 87.812424,231.969711 
	C87.828476,236.613373 92.888649,236.129944 95.964157,238.050720 
	C95.973015,238.013535 95.899323,238.033920 95.971458,238.405640 
	C97.594650,240.835648 98.722206,243.899292 100.775887,244.764374 
	C107.026192,247.397247 111.590736,253.117294 118.589836,254.251572 
	C119.145309,254.341583 119.538620,255.186493 120.113213,255.446503 
	C122.703354,256.618591 125.331696,257.706268 128.348984,258.899109 
	C131.845642,258.137787 134.932404,257.274048 138.034943,256.471283 
	C145.344269,254.580032 152.661087,252.717865 160.405151,250.902832 
	C166.412155,250.640076 172.047668,249.663788 177.551163,250.157944 
	C184.877213,250.815735 190.948669,248.266953 197.360321,245.075439 
	C197.826279,266.280365 197.766571,287.273041 198.115387,308.258942 
	C198.167984,311.423767 199.658493,314.830811 201.306488,317.643890 
	C204.155853,322.507660 209.276062,322.677094 214.365326,323.218262 
	C226.764725,324.536682 239.111481,326.350494 251.478867,327.969177 
	C260.937378,329.207123 270.376526,330.622559 279.857849,331.649048 
	C291.191193,332.876129 302.560303,333.773041 314.175964,335.133087 
	C324.815552,337.348389 331.104523,332.801788 333.471161,322.016357 
	C338.524475,322.330383 343.123474,322.942047 347.717010,322.903656 
	C354.314270,322.848511 360.926575,322.531128 367.497925,321.941284 
	C376.318665,321.149506 385.189453,320.443390 393.882538,318.848755 
	C401.023071,317.538940 408.389832,315.902802 414.816772,312.717377 
	C420.799896,309.751862 426.539856,305.852783 430.408234,299.514313 
	C433.096985,295.108643 436.765930,291.404541 437.486328,285.769440 
	C439.428864,284.993164 441.286194,284.678528 442.627167,283.674408 
	C445.505554,281.519073 448.102600,279.005188 442.921906,274.410583 
	C446.583496,274.677765 448.791748,274.838867 451.000000,275.000000 
M197.001740,308.224304 
	C197.001740,288.632782 197.001740,269.041290 197.001740,249.449768 
	C196.757858,249.451401 196.513962,249.453018 196.270081,249.454651 
	C196.270081,270.476013 196.270081,291.497406 196.270081,312.518768 
	C196.439728,312.523987 196.609360,312.529205 196.779007,312.534454 
	C196.853256,311.405090 196.927490,310.275757 197.001740,308.224304 
z"/>
<path fill="#FAD7C3" opacity="1.000000" stroke="none" 
	d="
M451.000000,274.562500 
	C448.791748,274.838867 446.583496,274.677765 442.921906,274.410583 
	C448.102600,279.005188 445.505554,281.519073 442.627167,283.674408 
	C441.286194,284.678528 439.428864,284.993164 437.026306,285.704926 
	C431.578766,285.935455 426.706573,285.009033 424.852570,291.610809 
	C424.383575,293.280792 420.284210,294.523315 417.708527,294.861542 
	C414.392822,295.296936 410.931519,294.623505 407.553955,294.428864 
	C406.303162,302.758240 403.701385,305.371704 397.353302,304.745422 
	C395.551178,304.567627 393.762207,304.257080 391.795898,303.946899 
	C391.624603,303.886414 391.261353,303.893097 391.005402,303.646240 
	C389.522980,303.607025 388.296509,303.814697 386.779846,304.216888 
	C384.077881,307.994110 380.883087,309.024414 377.042938,306.963257 
	C374.696289,305.703674 373.378601,306.048401 371.741486,308.300903 
	C366.797791,315.102875 364.507050,315.298492 358.200500,309.694275 
	C352.204285,304.365753 345.610199,302.674683 337.960815,305.527527 
	C336.122162,306.213226 334.146698,306.532166 332.190613,306.554871 
	C332.186737,301.408691 332.226440,296.727386 332.686340,292.022217 
	C344.007812,292.875244 354.895905,294.101685 365.814667,294.511871 
	C373.698883,294.808075 381.855591,295.074158 389.462524,293.403595 
	C396.442413,291.870728 402.778778,287.557709 409.522858,284.769928 
	C423.304443,279.073181 437.169373,273.578125 451.000000,268.000000 
	C451.000000,270.041656 451.000000,272.083344 451.000000,274.562500 
z"/>
<path fill="#FEB49F" opacity="1.000000" stroke="none" 
	d="
M19.993448,234.970795 
	C18.882263,235.643250 17.508705,236.090073 16.703856,237.025970 
	C12.495359,241.919830 6.976191,239.776520 1.447041,239.994080 
	C1.000000,233.645599 1.000000,227.291214 1.000000,220.468414 
	C1.665578,219.190796 2.704565,218.476822 2.939011,217.557648 
	C5.300974,208.297348 7.531083,199.003387 10.188616,189.286041 
	C11.064516,188.545090 11.550059,188.237030 12.421370,187.943970 
	C14.355091,188.932434 16.491102,189.547134 17.343706,190.944748 
	C20.211199,195.645233 20.703964,200.721786 19.206999,206.185638 
	C18.096460,210.239044 17.864180,214.533051 17.134472,219.124298 
	C16.491999,221.635559 15.955738,223.742416 15.232971,226.582047 
	C17.585207,225.152405 19.322321,224.096619 21.433109,223.022095 
	C23.494055,222.351364 25.217253,221.778625 26.862103,221.033051 
	C32.578377,218.441986 38.262238,215.779358 43.980606,213.192993 
	C44.305298,213.046143 44.828129,213.337372 45.517193,213.477142 
	C44.654282,214.478043 43.956776,215.287079 42.629753,216.826324 
	C47.183426,218.027863 51.101215,219.061615 54.976257,220.433258 
	C54.617550,221.863083 54.301590,222.955048 53.627457,223.993652 
	C50.826763,225.176056 48.384239,226.411804 45.636513,227.387268 
	C44.872036,226.854004 44.412754,226.581024 43.725418,226.100098 
	C35.168850,221.354034 35.168850,221.354034 30.531475,226.011963 
	C26.795370,229.049149 23.394413,232.009979 19.993448,234.970795 
z"/>
<path fill="#D77D4A" opacity="1.000000" stroke="none" 
	d="
M451.000000,267.666687 
	C437.169373,273.578125 423.304443,279.073181 409.522858,284.769928 
	C402.778778,287.557709 396.442413,291.870728 389.462524,293.403595 
	C381.855591,295.074158 373.698883,294.808075 365.814667,294.511871 
	C354.895905,294.101685 344.007812,292.875244 332.615173,291.637665 
	C332.198334,290.496216 332.272888,289.715424 332.786987,288.951782 
	C355.352753,289.842255 377.214233,288.303650 398.566437,281.935974 
	C412.843079,277.678375 427.436798,274.163605 439.078369,263.974457 
	C442.772888,264.647736 446.467438,265.321014 450.580994,265.997131 
	C451.000000,266.444458 451.000000,266.888885 451.000000,267.666687 
z"/>
<path fill="#F48C51" opacity="1.000000" stroke="none" 
	d="
M333.023956,176.962509 
	C350.923462,171.320862 369.096649,169.727997 387.189789,175.267365 
	C398.056091,178.594208 408.356750,183.476349 416.603607,191.908691 
	C420.871033,196.272141 426.830383,199.284149 430.153076,204.177917 
	C433.117218,208.543671 438.878082,211.747620 437.854919,218.852509 
	C435.205811,223.919373 433.716583,229.140427 430.454895,232.767639 
	C421.879730,242.303787 409.716187,245.679535 397.912872,248.885666 
	C376.466949,254.710968 354.458221,255.769073 332.252380,254.464569 
	C332.203400,241.691757 332.235291,229.375443 332.492493,217.035980 
	C332.717804,217.012848 333.167969,216.952850 333.461304,217.124786 
	C334.953247,218.159988 336.052704,219.258759 337.379608,219.817047 
	C338.590210,220.326431 340.047302,220.250061 341.395752,220.431839 
	C341.310974,219.060837 341.772003,217.072922 341.044067,216.428894 
	C338.336304,214.033249 335.237701,212.079407 332.212463,209.499481 
	C332.128204,200.908569 332.044586,192.776932 332.148956,184.647720 
	C332.181885,182.082657 332.718109,179.524063 333.023956,176.962509 
M376.421631,240.103363 
	C374.368927,238.312408 372.316254,236.521439 370.263550,234.730484 
	C369.973846,235.102600 369.684113,235.474731 369.394379,235.846863 
	C371.549591,241.419113 373.144745,242.496399 376.421631,240.103363 
M341.893890,237.669266 
	C338.981598,236.214523 335.796753,239.238739 336.721313,244.493500 
	C338.403992,242.445938 340.086639,240.398376 341.893890,237.669266 
M373.186462,195.826874 
	C373.966309,196.418137 374.746124,197.009384 375.525970,197.600647 
	C377.126526,195.453964 378.727081,193.307281 380.327637,191.160599 
	C379.827637,190.748199 379.327667,190.335815 378.827667,189.923431 
	C377.047638,191.674438 375.267609,193.425461 373.186462,195.826874 
M334.440125,193.102539 
	C335.880280,194.454254 337.320435,195.805954 339.361969,197.722092 
	C340.533081,192.284668 337.629456,191.133820 334.605194,190.073334 
	C334.404022,190.896454 334.202850,191.719559 334.440125,193.102539 
M366.972809,211.522400 
	C368.326111,212.391602 369.679443,213.260803 371.032776,214.130020 
	C371.479523,213.577042 371.926300,213.024063 372.373047,212.471085 
	C370.343109,210.552567 368.313141,208.634048 366.283173,206.715530 
	C365.811157,207.100220 365.339142,207.484909 364.867126,207.869598 
	C365.398315,208.912354 365.929504,209.955109 366.972809,211.522400 
M388.662689,220.204926 
	C387.662689,221.823013 386.662659,223.441101 385.662659,225.059189 
	C386.300873,225.486206 386.939087,225.913223 387.577301,226.340240 
	C389.004120,224.536728 390.430939,222.733231 391.857727,220.929718 
	C391.006805,220.572708 390.155914,220.215698 388.662689,220.204926 
z"/>
<path fill="#F48D52" opacity="1.000000" stroke="none" 
	d="
M189.960938,230.154709 
	C192.433090,228.833237 194.905258,227.511765 198.004089,226.081909 
	C199.134018,225.622543 199.637268,225.271576 200.444016,224.820892 
	C202.204590,223.481323 203.661697,222.241470 205.423035,220.878174 
	C208.481400,218.460007 211.235550,216.165268 214.115753,214.219330 
	C219.933456,217.452454 225.052811,213.277939 225.128174,205.597961 
	C237.438339,198.629807 250.111145,198.875275 263.108643,201.912933 
	C265.581604,202.490875 266.654114,203.483627 266.229919,205.898956 
	C265.411896,210.557114 264.512634,215.201004 263.572205,220.252716 
	C265.500122,222.803940 267.801727,225.849670 270.113098,229.333618 
	C268.744415,236.413757 267.565125,243.107925 265.845306,249.660248 
	C265.423584,251.266907 263.180939,252.359665 261.871613,253.777496 
	C259.779388,256.043152 257.462921,258.188477 255.822418,260.755951 
	C254.605453,262.660614 253.850098,265.456207 257.461029,266.116669 
	C260.072876,266.594391 263.585541,269.069489 264.446198,263.681396 
	C264.921051,264.851501 265.307831,265.804535 265.802216,267.022705 
	C266.989563,265.148193 267.892395,263.697693 268.820526,262.263550 
	C270.235779,260.076691 271.966248,258.035980 273.028229,255.691086 
	C274.910461,251.534988 276.391144,247.197052 278.191711,243.256958 
	C280.881348,250.049347 283.419128,256.519989 285.639099,263.150513 
	C273.848297,267.175964 265.078613,274.486328 258.860687,284.736481 
	C255.884964,289.641876 253.581604,294.955109 250.806274,299.762207 
	C246.534927,288.755310 242.531952,278.029724 238.300598,267.394989 
	C233.452286,255.209656 225.693710,245.055206 216.642288,236.195343 
	C212.338364,238.338837 208.635513,240.182968 204.701599,242.045197 
	C204.470535,242.063278 204.044968,242.247055 203.728241,242.281540 
	C202.263733,242.877182 201.115952,243.438354 199.635849,243.931564 
	C197.552078,242.553848 195.800598,241.244064 194.025391,239.962509 
	C194.001648,239.990738 194.071640,239.967468 194.253494,239.621857 
	C192.943878,236.235733 191.452408,233.195221 189.960938,230.154709 
z"/>
<path fill="#F38E54" opacity="1.000000" stroke="none" 
	d="
M164.171646,145.972321 
	C165.800873,144.245026 167.241302,142.274582 169.094406,140.835571 
	C174.857483,136.360291 180.813156,132.134048 186.622772,127.717346 
	C190.278976,124.937759 193.807281,121.989960 198.008713,118.901917 
	C199.144455,118.131851 199.664429,117.577484 200.512726,116.958305 
	C202.230347,115.285545 203.619629,113.677597 205.459167,112.113892 
	C218.301468,110.950348 230.696228,109.769363 243.085037,108.529182 
	C268.357178,105.999290 293.626160,103.437523 318.960693,101.250412 
	C317.934326,103.320862 316.843719,105.029800 315.463562,106.847633 
	C314.307495,107.824814 313.441040,108.693100 312.373779,109.696533 
	C311.904419,110.028198 311.703339,110.278831 311.292786,110.634521 
	C310.587677,111.033333 310.159424,111.381210 309.439697,111.828545 
	C308.290009,112.782059 307.431824,113.636116 306.318817,114.599396 
	C305.636627,115.064339 305.209290,115.420044 304.473541,115.880844 
	C302.396454,117.540466 300.627716,119.094978 298.534515,120.785362 
	C297.159119,122.301987 296.108215,123.682739 295.028656,125.032654 
	C295.000000,125.001808 295.058350,125.060326 294.719971,124.891685 
	C292.273529,126.529495 290.165527,128.335953 288.054077,130.100006 
	C288.050690,130.057632 288.131927,130.082672 287.780212,130.035339 
	C284.982819,131.671677 282.537140,133.355331 279.667480,135.040558 
	C273.829010,135.690170 268.414551,136.338196 263.154053,136.690842 
	C275.374207,126.482498 287.440399,116.569550 299.506592,106.656609 
	C299.305695,106.242966 299.104828,105.829315 298.903961,105.415672 
	C293.240662,106.395073 286.347565,105.658707 282.142578,108.672707 
	C269.058502,118.050964 256.993378,128.850876 244.116089,139.066711 
	C238.700851,139.311829 233.702576,139.589630 228.888733,139.578583 
	C241.152512,129.466843 253.231857,119.643959 266.088501,109.188957 
	C261.923798,109.546593 258.795868,109.592575 255.758453,110.140472 
	C252.889252,110.658020 249.545609,110.968918 247.393845,112.638138 
	C235.441559,121.910118 223.788879,131.568314 211.783051,141.178375 
	C211.288971,141.517960 211.045532,141.773529 210.355591,142.020050 
	C205.248810,142.328278 200.588531,142.645523 196.098511,142.673782 
	C208.149857,132.839127 220.030960,123.293472 231.912048,113.747803 
	C231.655945,113.239227 231.399841,112.730652 231.143738,112.222076 
	C226.184921,113.227127 220.208817,112.810539 216.453598,115.497643 
	C204.044830,124.376884 192.438126,134.376999 180.292572,143.991379 
	C179.723129,144.354355 179.384674,144.672836 178.590332,144.990021 
	C173.480164,145.316574 168.825912,145.644455 164.171646,145.972321 
z"/>
<path fill="#594429" opacity="1.000000" stroke="none" 
	d="
M332.267181,217.059113 
	C332.235291,229.375443 332.203400,241.691757 332.165955,254.881836 
	C332.180298,257.151001 332.200134,258.546417 332.179138,260.393677 
	C332.305756,264.297577 332.473206,267.749695 332.630920,271.502228 
	C332.657349,272.200195 332.693481,272.597687 332.680115,273.384644 
	C332.524170,275.870575 332.417725,277.967102 332.234375,280.501831 
	C332.220795,283.604919 332.284119,286.269775 332.347443,288.934662 
	C332.272888,289.715424 332.198334,290.496216 332.194946,291.661499 
	C332.226440,296.727386 332.186737,301.408691 332.122101,306.997498 
	C332.176605,310.962830 332.256042,314.020630 332.257416,317.446747 
	C332.457703,319.217865 332.736053,320.620728 333.014404,322.023560 
	C331.104523,332.801788 324.815552,337.348389 314.420441,334.884552 
	C316.874817,332.538330 319.346802,330.760834 322.003174,328.775208 
	C322.142059,328.387390 322.096588,328.207703 322.022949,328.018433 
	C321.994812,328.008850 322.020172,328.062653 322.361969,328.006073 
	C323.414886,326.275146 324.125977,324.600830 325.169800,323.033386 
	C326.001678,321.733795 326.936432,320.327728 326.937653,318.920776 
	C327.007690,239.401733 327.000458,159.882614 326.996094,80.363510 
	C326.996033,79.035919 327.029022,77.693008 326.812836,76.396202 
	C326.777802,76.186058 325.515167,76.180565 324.621704,75.803314 
	C323.623718,73.996956 322.823975,72.467751 322.012421,70.967041 
	C322.000641,70.995544 322.058716,70.974808 322.004150,70.649521 
	C321.316223,70.255943 320.682861,70.187653 319.931152,69.833313 
	C319.526276,68.999817 319.239746,68.452370 318.913696,67.574463 
	C317.141876,66.255714 315.409576,65.267410 313.961731,64.092255 
	C314.827820,63.555107 315.409546,63.204803 315.991241,62.854500 
	C319.749969,63.883400 323.508728,64.912300 327.727692,66.240128 
	C328.806458,67.020142 329.424957,67.501228 330.043488,67.982315 
	C333.355957,74.770821 333.046112,82.037239 333.025696,89.314720 
	C332.944672,118.220207 332.976715,147.126007 332.995422,176.497101 
	C332.718109,179.524063 332.181885,182.082657 332.148956,184.647720 
	C332.044586,192.776932 332.128204,200.908569 332.147217,209.922546 
	C332.208496,212.492065 332.261688,214.178284 332.238525,216.160583 
	C332.197205,216.657486 332.232178,216.858292 332.267181,217.059113 
z"/>
<path fill="#D67C48" opacity="1.000000" stroke="none" 
	d="
M332.311310,280.063629 
	C332.417725,277.967102 332.524170,275.870575 333.135010,273.386566 
	C336.088348,272.491119 338.537323,271.983124 341.398560,271.351929 
	C346.624329,270.044617 351.964752,269.803192 356.136505,267.471130 
	C363.742279,263.219391 371.001129,263.295837 379.025024,265.556488 
	C384.402740,267.071625 389.517822,266.261810 394.169250,261.871124 
	C396.949921,259.246338 401.356995,257.805603 405.268097,257.050598 
	C410.425629,256.054932 415.810944,256.185760 421.103668,255.956192 
	C428.705353,255.626465 433.380188,252.204926 436.138062,245.094452 
	C436.731720,243.563843 438.041595,242.311050 439.021576,240.930283 
	C440.010895,243.367538 441.000214,245.804794 441.573578,248.698730 
	C438.832489,255.772034 433.643341,259.699677 427.906586,263.005768 
	C410.321259,273.140198 390.966003,277.310150 371.052094,278.873627 
	C358.186646,279.883698 345.228119,279.707947 332.311310,280.063629 
z"/>
<path fill="#F48D52" opacity="1.000000" stroke="none" 
	d="
M17.240690,218.719879 
	C17.864180,214.533051 18.096460,210.239044 19.206999,206.185638 
	C20.703964,200.721786 20.211199,195.645233 17.343706,190.944748 
	C16.491102,189.547134 14.355091,188.932434 12.575420,187.683945 
	C13.547835,186.655914 14.751965,185.902954 16.196732,185.431747 
	C17.680397,186.143463 18.892815,186.734848 20.171392,186.977264 
	C28.794916,188.612274 37.432514,190.224609 46.028656,186.982590 
	C45.996929,186.989349 46.008656,186.925522 46.094131,187.259735 
	C49.073975,191.416473 51.968338,195.239014 54.862709,199.061554 
	C55.587822,201.060486 56.312935,203.059418 56.989525,205.900604 
	C56.300331,211.193680 55.659664,215.644531 55.018997,220.095367 
	C51.101215,219.061615 47.183426,218.027863 42.629753,216.826324 
	C43.956776,215.287079 44.654282,214.478043 45.517193,213.477142 
	C44.828129,213.337372 44.305298,213.046143 43.980606,213.192993 
	C38.262238,215.779358 32.578377,218.441986 26.862103,221.033051 
	C25.217253,221.778625 23.494055,222.351364 21.402359,223.037506 
	C20.997931,223.071686 20.939522,223.034683 20.879723,222.744507 
	C20.528427,221.938477 20.236933,221.422623 19.966553,220.598404 
	C19.072010,219.766663 18.156351,219.243271 17.240690,218.719879 
z"/>
<path fill="#F48C51" opacity="1.000000" stroke="none" 
	d="
M109.152924,232.962067 
	C117.531738,231.166626 126.074394,229.906509 134.237991,227.407867 
	C140.874451,225.376648 145.842621,226.937317 151.032486,230.922607 
	C155.115173,234.057678 159.847046,236.347351 164.774872,239.372253 
	C166.222794,240.818954 167.186371,241.905945 167.718338,242.994415 
	C165.972824,243.123245 164.610077,243.068604 163.352615,243.406189 
	C151.536880,246.578293 139.739166,249.817429 127.673416,252.899414 
	C126.944916,252.162689 126.479225,251.563751 126.434074,250.944107 
	C130.374680,250.311295 133.894730,249.699173 137.414780,249.087051 
	C132.848877,246.477478 128.000854,247.684631 125.654869,251.023804 
	C123.143776,250.198975 120.982910,249.403595 118.887825,248.461868 
	C111.213158,245.012222 103.560356,241.513916 95.899323,238.033920 
	C95.899323,238.033920 95.973015,238.013535 96.038345,237.743622 
	C100.453430,235.969849 104.803177,234.465958 109.152924,232.962067 
z"/>
<path fill="#F38B51" opacity="1.000000" stroke="none" 
	d="
M332.234375,280.501831 
	C345.228119,279.707947 358.186646,279.883698 371.052094,278.873627 
	C390.966003,277.310150 410.321259,273.140198 427.906586,263.005768 
	C433.643341,259.699677 438.832489,255.772034 441.500793,249.089584 
	C442.333435,254.013184 442.198120,258.888702 439.164185,263.612915 
	C427.436798,274.163605 412.843079,277.678375 398.566437,281.935974 
	C377.214233,288.303650 355.352753,289.842255 332.786987,288.951782 
	C332.284119,286.269775 332.220795,283.604919 332.234375,280.501831 
z"/>
<path fill="#684F30" opacity="1.000000" stroke="none" 
	d="
M15.956093,185.149979 
	C14.751965,185.902954 13.547835,186.655914 12.189653,187.668915 
	C11.550059,188.237030 11.064516,188.545090 10.301317,188.929504 
	C6.078871,187.758957 5.278662,185.122940 6.782637,181.535828 
	C7.459123,179.922348 8.255883,178.359299 9.268215,176.315048 
	C9.686183,175.554703 9.834007,175.252686 9.981835,174.950653 
	C10.988787,172.613754 12.248446,170.350494 12.954920,167.926025 
	C15.008410,160.878891 16.840252,153.767197 19.157089,146.241699 
	C20.384579,144.890762 21.214022,143.978928 22.043465,143.067108 
	C26.319069,141.427460 30.593206,139.770905 35.678429,142.195221 
	C36.455513,142.637558 36.752327,142.809860 37.049137,142.982147 
	C44.480080,148.086212 46.987465,155.200500 46.146782,163.993805 
	C46.017483,165.346252 48.143517,166.914291 49.424904,168.651642 
	C48.752670,169.231003 47.665401,170.168060 47.631828,170.196991 
	C48.135139,176.073990 48.565228,181.095993 48.647720,186.597321 
	C47.536304,187.026276 46.772480,186.975906 46.008656,186.925537 
	C46.008656,186.925522 45.996929,186.989349 45.826344,186.676468 
	C43.451572,185.630829 41.275337,184.795364 39.037457,184.186447 
	C34.195858,182.869064 33.458504,180.185699 36.591572,176.041458 
	C38.373600,173.684326 40.528080,171.147186 41.050034,168.411621 
	C41.759800,164.691742 41.585655,160.573669 40.657192,156.913879 
	C40.386696,155.847626 36.245159,155.777924 33.885693,155.219086 
	C33.085629,155.029602 32.281487,154.468628 31.526823,154.545410 
	C28.699753,154.833023 25.379850,154.537781 23.231462,155.955917 
	C21.337891,157.205872 21.356129,161.230164 19.484180,162.659149 
	C15.016911,166.069305 18.227350,167.864044 20.361073,170.008713 
	C23.962259,173.628372 25.141291,177.791595 23.726227,182.438065 
	C20.953571,183.405762 18.454832,184.277878 15.956093,185.149979 
z"/>
<path fill="#F9D6C1" opacity="1.000000" stroke="none" 
	d="
M439.017944,240.501221 
	C438.041595,242.311050 436.731720,243.563843 436.138062,245.094452 
	C433.380188,252.204926 428.705353,255.626465 421.103668,255.956192 
	C415.810944,256.185760 410.425629,256.054932 405.268097,257.050598 
	C401.356995,257.805603 396.949921,259.246338 394.169250,261.871124 
	C389.517822,266.261810 384.402740,267.071625 379.025024,265.556488 
	C371.001129,263.295837 363.742279,263.219391 356.136505,267.471130 
	C351.964752,269.803192 346.624329,270.044617 340.952728,271.256653 
	C337.609955,271.256989 335.125305,271.229401 332.640686,271.201782 
	C332.473206,267.749695 332.305756,264.297577 332.627991,260.345886 
	C352.719025,260.432373 372.358337,260.839569 391.539978,255.966141 
	C408.167938,251.741531 425.420227,248.518814 437.414246,234.313278 
	C437.656464,234.026443 438.354492,234.124466 438.839844,234.042938 
	C438.898010,236.052673 438.956177,238.062424 439.017944,240.501221 
z"/>
<path fill="#FDB4A0" opacity="1.000000" stroke="none" 
	d="
M224.904587,205.873306 
	C225.052811,213.277939 219.933456,217.452454 214.092590,213.845398 
	C211.003128,211.430695 208.062927,209.738754 204.960632,207.760284 
	C203.272339,205.747482 201.746124,204.021210 200.129654,201.977005 
	C199.419571,200.818039 198.799744,199.976990 198.179916,199.135941 
	C194.725739,195.301102 195.266891,190.528061 195.520081,185.552368 
	C200.357681,182.503799 204.753159,179.829285 209.626114,176.864243 
	C212.236450,180.541214 215.476898,185.105774 218.898468,189.925461 
	C220.336395,189.380829 222.162399,188.689209 224.303528,188.148712 
	C226.907516,189.857269 228.024368,192.162628 225.779266,194.070801 
	C221.258133,197.913391 222.795715,201.772049 224.904587,205.873306 
z"/>
<path fill="#D67C49" opacity="1.000000" stroke="none" 
	d="
M438.910095,233.619080 
	C438.354492,234.124466 437.656464,234.026443 437.414246,234.313278 
	C425.420227,248.518814 408.167938,251.741531 391.539978,255.966141 
	C372.358337,260.839569 352.719025,260.432373 332.668823,259.894104 
	C332.200134,258.546417 332.180298,257.151001 332.246826,255.338303 
	C354.458221,255.769073 376.466949,254.710968 397.912872,248.885666 
	C409.716187,245.679535 421.879730,242.303787 430.454895,232.767639 
	C433.716583,229.140427 435.205811,223.919373 437.791077,219.199158 
	C441.399261,223.522797 439.637115,228.394012 438.910095,233.619080 
z"/>
<path fill="#FFB5A2" opacity="1.000000" stroke="none" 
	d="
M109.085960,232.571808 
	C104.803177,234.465958 100.453430,235.969849 96.029480,237.780823 
	C92.888649,236.129944 87.828476,236.613373 87.812424,231.969711 
	C77.598206,230.949677 67.708900,229.962097 57.301849,228.650848 
	C55.851280,226.900452 54.918453,225.473724 53.985626,224.046997 
	C54.301590,222.955048 54.617550,221.863083 54.976254,220.433258 
	C55.659664,215.644531 56.300331,211.193680 56.974613,206.274170 
	C58.337856,209.210190 60.133163,212.518631 60.862797,216.047394 
	C61.556847,219.404068 63.101673,220.443008 66.735611,220.286560 
	C67.516907,220.782837 67.793945,220.917938 68.116798,220.959106 
	C74.853821,222.358078 81.577637,223.827393 88.338867,225.097458 
	C89.714111,225.355804 91.282066,225.053284 92.669678,224.674271 
	C94.876930,224.071411 97.007256,223.186859 99.957306,222.142883 
	C99.540710,226.489517 100.677063,228.194534 104.472923,228.238800 
	C106.003395,228.256653 107.504517,230.791946 109.085960,232.571808 
z"/>
<path fill="#503E26" opacity="1.000000" stroke="none" 
	d="
M223.988403,187.997589 
	C222.162399,188.689209 220.336395,189.380829 218.898468,189.925461 
	C215.476898,185.105774 212.236450,180.541214 209.626114,176.864243 
	C204.753159,179.829285 200.357681,182.503799 195.590515,185.117599 
	C194.673538,184.775436 194.128250,184.493958 193.157806,183.838409 
	C192.195602,183.174866 191.658539,182.885376 191.121460,182.595901 
	C189.335098,175.069931 189.357635,175.109146 196.631577,170.927643 
	C197.678040,170.326065 198.385941,169.135574 199.790222,168.326599 
	C201.609055,168.597015 202.888138,168.758423 204.571457,168.943726 
	C219.507446,170.908096 224.135773,175.540604 223.988403,187.997589 
z"/>
<path fill="#FFC9B9" opacity="1.000000" stroke="none" 
	d="
M168.149948,242.992935 
	C167.186371,241.905945 166.222794,240.818954 165.134369,239.444565 
	C172.825470,237.782913 180.892456,237.294357 188.216919,232.591309 
	C190.449600,234.978516 192.260620,237.472992 194.071655,239.967468 
	C194.071640,239.967468 194.001648,239.990738 194.024963,240.293915 
	C195.021378,242.018402 195.994476,243.439713 196.967575,244.861008 
	C190.948669,248.266953 184.877213,250.815735 177.551163,250.157944 
	C172.047668,249.663788 166.412155,250.640076 160.466705,250.548370 
	C162.266495,249.177719 164.375748,248.037552 166.618988,247.311020 
	C169.229721,246.465454 169.676361,245.155823 168.149948,242.992935 
z"/>
<path fill="#F1EFEC" opacity="1.000000" stroke="none" 
	d="
M313.677307,64.279106 
	C315.409576,65.267410 317.141876,66.255714 318.525177,67.623306 
	C313.980896,67.572037 309.708344,66.407066 305.603668,66.838631 
	C288.238647,68.664345 270.923065,70.961037 253.590347,73.093246 
	C239.558899,74.819351 225.516785,76.465782 211.502930,78.324936 
	C203.933243,79.329170 200.103989,83.909897 200.084900,91.554916 
	C200.063705,100.044182 200.146744,108.533707 200.184387,117.023117 
	C199.664429,117.577484 199.144455,118.131851 198.337952,118.731903 
	C198.023819,108.966629 197.866760,99.153595 198.023270,89.345573 
	C198.101318,84.454132 200.383621,80.258972 204.214798,77.329659 
	C205.673065,76.214661 208.126297,76.289658 210.152985,76.047737 
	C221.852112,74.651192 233.569489,73.403885 245.260895,71.947334 
	C257.107697,70.471436 268.918762,68.706085 280.769409,67.264008 
	C290.866516,66.035324 300.997559,65.085777 311.822754,64.064682 
	C312.913696,64.170784 313.295502,64.224945 313.677307,64.279106 
z"/>
<path fill="#D67C49" opacity="1.000000" stroke="none" 
	d="
M195.928268,142.962769 
	C200.588531,142.645523 205.248810,142.328278 210.416931,142.473450 
	C210.991150,146.308838 211.057526,149.681808 210.961716,153.352310 
	C208.553436,155.796341 206.307327,157.942856 203.647858,160.051956 
	C202.130249,160.043915 201.025986,160.073273 199.921738,160.102631 
	C198.537140,159.164261 197.152542,158.225876 195.394577,156.696320 
	C194.936707,152.045380 194.852203,147.985626 194.910156,143.708496 
	C195.344513,143.315018 195.636383,143.138901 195.928268,142.962769 
z"/>
<path fill="#E0DEDC" opacity="1.000000" stroke="none" 
	d="
M194.767700,143.925858 
	C194.852203,147.985626 194.936707,152.045380 195.105118,156.560593 
	C191.141159,162.608627 185.736740,160.930634 180.266876,159.001846 
	C179.751984,153.819565 179.399094,149.405457 179.046219,144.991333 
	C179.384674,144.672836 179.723129,144.354355 180.796967,144.016876 
	C185.944138,143.973877 190.355927,143.949875 194.767700,143.925858 
z"/>
<path fill="#D67C48" opacity="1.000000" stroke="none" 
	d="
M178.590332,144.990021 
	C179.399094,149.405457 179.751984,153.819565 180.053864,158.671265 
	C179.220718,159.660980 178.513947,160.469589 177.644608,160.725174 
	C169.869370,163.011139 163.768661,164.108688 164.001038,151.812500 
	C164.032089,150.169662 164.018402,148.525970 164.098541,146.427490 
	C168.825912,145.644455 173.480164,145.316574 178.590332,144.990021 
z"/>
<path fill="#FEFDFD" opacity="1.000000" stroke="none" 
	d="
M198.103607,199.587799 
	C198.799744,199.976990 199.419571,200.818039 200.060547,202.420532 
	C200.101318,210.428192 200.120926,217.674393 200.140533,224.920593 
	C199.637268,225.271576 199.134018,225.622543 198.316132,225.916245 
	C198.010117,217.252533 198.018707,208.646088 198.103607,199.587799 
z"/>
<path fill="#664E2F" opacity="1.000000" stroke="none" 
	d="
M199.955933,160.532471 
	C201.025986,160.073273 202.130249,160.043915 203.632874,160.490173 
	C204.076584,163.617126 204.121918,166.268494 204.167236,168.919830 
	C202.888138,168.758423 201.609055,168.597015 200.079712,168.130646 
	C199.883026,165.537903 199.936584,163.250107 199.955933,160.532471 
z"/>
<path fill="#FBB39E" opacity="1.000000" stroke="none" 
	d="
M46.094131,187.259735 
	C46.772480,186.975906 47.536304,187.026276 48.675308,186.997620 
	C51.033451,190.699677 53.016407,194.480759 54.931034,198.661713 
	C51.968338,195.239014 49.073975,191.416473 46.094131,187.259735 
z"/>
<path fill="#F3F1EF" opacity="1.000000" stroke="none" 
	d="
M194.253510,239.621857 
	C192.260620,237.472992 190.449600,234.978516 188.392853,232.271805 
	C188.547195,231.410797 188.947250,230.762024 189.654129,230.133987 
	C191.452408,233.195221 192.943878,236.235733 194.253510,239.621857 
z"/>
<path fill="#000000" opacity="1.000000" stroke="none" 
	d="
M313.961731,64.092255 
	C313.295502,64.224945 312.913696,64.170784 312.266144,63.999802 
	C312.516968,61.530716 313.400635,60.028648 315.933014,62.532265 
	C315.409546,63.204803 314.827820,63.555107 313.961731,64.092255 
z"/>
<path fill="#000000" opacity="1.000000" stroke="none" 
	d="
M21.877331,142.865906 
	C21.214022,143.978928 20.384579,144.890762 19.254307,145.891510 
	C19.872719,144.875183 20.791960,143.769943 21.877331,142.865906 
z"/>
<path fill="#000000" opacity="1.000000" stroke="none" 
	d="
M330.219879,67.825104 
	C329.424957,67.501228 328.806458,67.020142 328.101685,66.249611 
	C328.809082,66.529411 329.602661,67.098648 330.219879,67.825104 
z"/>
<path fill="#000000" opacity="1.000000" stroke="none" 
	d="
M9.850210,174.779266 
	C9.834007,175.252686 9.686183,175.554703 9.296294,175.946106 
	C9.275683,175.559616 9.497136,175.083755 9.850210,174.779266 
z"/>
<path fill="#000000" opacity="1.000000" stroke="none" 
	d="
M191.147568,182.884857 
	C191.658539,182.885376 192.195602,183.174866 192.863983,183.739502 
	C192.388077,183.734375 191.780869,183.454086 191.147568,182.884857 
z"/>
<path fill="#000000" opacity="1.000000" stroke="none" 
	d="
M37.219105,142.855164 
	C36.752327,142.809860 36.455513,142.637558 36.088188,142.208252 
	C36.474808,142.210220 36.931942,142.469193 37.219105,142.855164 
z"/>
<path fill="#FEB49F" opacity="1.000000" stroke="none" 
	d="
M68.028534,220.706635 
	C67.793945,220.917938 67.516907,220.782837 67.152466,220.360794 
	C67.326263,220.263229 67.633270,220.358704 68.028534,220.706635 
z"/>
<path fill="#664E2F" opacity="1.000000" stroke="none" 
	d="
M19.990530,235.371323 
	C23.394413,232.009979 26.795370,229.049149 30.871582,226.259949 
	C35.358963,226.602585 39.171085,226.773621 42.990356,227.376068 
	C43.648117,233.549744 44.604233,239.278122 44.866032,245.038071 
	C45.144711,251.169327 45.028233,257.348206 44.613941,263.474457 
	C43.967789,273.029236 42.924965,282.557190 42.050224,292.096527 
	C40.711693,310.303711 39.359745,328.509949 38.052509,346.719391 
	C37.898518,348.864410 37.990032,351.027100 37.565994,353.453369 
	C33.706089,353.845215 30.247931,353.965240 26.789772,354.085266 
	C25.208611,349.169617 22.974730,344.356049 22.186354,339.316376 
	C20.687332,329.733856 20.174894,320.001404 18.933754,310.372345 
	C18.284409,305.334564 16.920551,300.391388 15.944324,295.392792 
	C12.694916,278.754730 13.710841,262.250305 17.575075,245.843781 
	C18.366529,242.483475 19.182785,239.128998 19.990530,235.371323 
z"/>
<path fill="#664E2F" opacity="1.000000" stroke="none" 
	d="
M53.627457,223.993652 
	C54.918453,225.473724 55.851280,226.900452 56.894379,228.635300 
	C59.063110,237.403198 61.656895,245.776108 63.047134,254.344299 
	C64.863365,265.537964 65.734795,276.885315 66.998589,288.168121 
	C68.243942,299.286469 69.421555,310.412598 70.723083,321.524323 
	C71.756821,330.349762 72.932693,339.158600 73.665665,348.469666 
	C70.781296,349.672943 68.276718,350.381378 65.772156,351.089813 
	C64.739220,350.145752 63.404324,349.381378 62.719440,348.230255 
	C54.733932,334.808563 51.023842,319.831177 47.042885,304.942291 
	C46.029690,301.152893 44.500263,297.501495 43.549782,293.326111 
	C49.744366,282.651733 52.529434,271.830505 50.536339,259.852234 
	C49.220406,261.516815 48.048546,262.999176 46.784447,264.598206 
	C47.138371,257.245758 47.795582,250.533875 47.678684,243.835464 
	C47.584366,238.431046 46.555805,233.042908 45.941711,227.647552 
	C48.384239,226.411804 50.826763,225.176056 53.627457,223.993652 
z"/>
<path fill="#F38B51" opacity="1.000000" stroke="none" 
	d="
M333.471161,322.016357 
	C332.736053,320.620728 332.457703,319.217865 332.697723,317.424683 
	C353.932953,317.441254 374.414520,316.363800 394.366394,308.045105 
	C393.269806,306.199646 392.618500,305.103516 391.967194,304.007385 
	C393.762207,304.257080 395.551178,304.567627 397.353302,304.745422 
	C403.701385,305.371704 406.303162,302.758240 407.553955,294.428864 
	C410.931519,294.623505 414.392822,295.296936 417.708527,294.861542 
	C420.284210,294.523315 424.383575,293.280792 424.852570,291.610809 
	C426.706573,285.009033 431.578766,285.935455 436.707031,285.854065 
	C436.765930,291.404541 433.096985,295.108643 430.408234,299.514313 
	C426.539856,305.852783 420.799896,309.751862 414.816772,312.717377 
	C408.389832,315.902802 401.023071,317.538940 393.882538,318.848755 
	C385.189453,320.443390 376.318665,321.149506 367.497925,321.941284 
	C360.926575,322.531128 354.314270,322.848511 347.717010,322.903656 
	C343.123474,322.942047 338.524475,322.330383 333.471161,322.016357 
z"/>
<path fill="#F3F1EF" opacity="1.000000" stroke="none" 
	d="
M197.360321,245.075439 
	C195.994476,243.439713 195.021378,242.018402 194.048706,240.265686 
	C195.800598,241.244064 197.552078,242.553848 199.672974,244.399170 
	C200.049576,265.413727 200.052414,285.892731 200.065796,306.371735 
	C200.072021,315.894257 203.811813,319.841949 213.279678,321.003326 
	C244.322433,324.811157 275.357483,328.684601 306.376984,332.676666 
	C311.643768,333.354492 316.299652,332.766052 320.505005,328.966125 
	C321.118042,328.964050 321.468414,328.973694 321.818817,328.983337 
	C319.346802,330.760834 316.874817,332.538330 314.158386,334.564392 
	C302.560303,333.773041 291.191193,332.876129 279.857849,331.649048 
	C270.376526,330.622559 260.937378,329.207123 251.478867,327.969177 
	C239.111481,326.350494 226.764725,324.536682 214.365326,323.218262 
	C209.276062,322.677094 204.155853,322.507660 201.306488,317.643890 
	C199.658493,314.830811 198.167984,311.423767 198.115387,308.258942 
	C197.766571,287.273041 197.826279,266.280365 197.360321,245.075439 
z"/>
<path fill="#4E3C23" opacity="1.000000" stroke="none" 
	d="
M45.636513,227.387268 
	C46.555805,233.042908 47.584366,238.431046 47.678684,243.835464 
	C47.795582,250.533875 47.138371,257.245758 46.784447,264.598206 
	C48.048546,262.999176 49.220406,261.516815 50.536339,259.852234 
	C52.529434,271.830505 49.744366,282.651733 43.561607,292.955505 
	C43.005947,292.777679 42.780212,292.509827 42.302353,292.169250 
	C42.924965,282.557190 43.967789,273.029236 44.613941,263.474457 
	C45.028233,257.348206 45.144711,251.169327 44.866032,245.038071 
	C44.604233,239.278122 43.648117,233.549744 43.242474,227.231491 
	C43.642788,226.539688 43.798130,226.423874 43.953476,226.308060 
	C44.412754,226.581024 44.872036,226.854004 45.636513,227.387268 
z"/>
<path fill="#FFB5A2" opacity="1.000000" stroke="none" 
	d="
M65.874695,351.474426 
	C68.276718,350.381378 70.781296,349.672943 73.682480,348.896301 
	C76.390427,357.600861 78.701759,366.373657 81.010696,375.901184 
	C78.660797,382.361725 75.890297,379.218933 73.165436,377.030884 
	C70.769371,368.640259 68.373306,360.249664 65.874695,351.474426 
z"/>
<path fill="#F59A65" opacity="1.000000" stroke="none" 
	d="
M167.718338,242.994415 
	C169.676361,245.155823 169.229721,246.465454 166.618988,247.311020 
	C164.375748,248.037552 162.266495,249.177719 160.036438,250.489456 
	C152.661087,252.717865 145.344269,254.580032 138.034943,256.471283 
	C134.932404,257.274048 131.845642,258.137787 128.358475,258.485535 
	C127.955566,256.343903 127.945900,254.690552 127.936234,253.037201 
	C139.739166,249.817429 151.536880,246.578293 163.352615,243.406189 
	C164.610077,243.068604 165.972824,243.123245 167.718338,242.994415 
z"/>
<path fill="#FEB49F" opacity="1.000000" stroke="none" 
	d="
M26.881269,354.532471 
	C30.247931,353.965240 33.706089,353.845215 37.526222,353.912354 
	C37.921780,361.451111 37.955368,368.802734 37.568439,376.605743 
	C35.091797,377.006256 33.035675,376.955353 30.979551,376.904449 
	C29.962839,369.537903 26.072567,362.696533 26.881269,354.532471 
z"/>
<path fill="#F48C51" opacity="1.000000" stroke="none" 
	d="
M72.963150,377.403351 
	C75.890297,379.218933 78.660797,382.361725 81.074738,376.303101 
	C82.318787,376.381714 83.666176,376.579254 84.642456,377.287994 
	C87.682281,379.494812 90.701904,381.763000 93.474960,384.286926 
	C94.556694,385.271454 94.960861,387.000427 95.883049,388.798645 
	C87.739059,388.798645 80.197693,388.798645 71.795670,388.798645 
	C72.123535,385.054260 72.442200,381.415039 72.963150,377.403351 
z"/>
<path fill="#F8BD9C" opacity="1.000000" stroke="none" 
	d="
M127.673416,252.899414 
	C127.945900,254.690552 127.955566,256.343903 127.955750,258.410828 
	C125.331696,257.706268 122.703354,256.618591 120.113213,255.446503 
	C119.538620,255.186493 119.145309,254.341583 118.589836,254.251572 
	C111.590736,253.117294 107.026192,247.397247 100.775887,244.764374 
	C98.722206,243.899292 97.594650,240.835648 95.971458,238.405640 
	C103.560356,241.513916 111.213158,245.012222 118.887825,248.461868 
	C120.982910,249.403595 123.143776,250.198975 125.636597,251.031509 
	C125.998749,251.001511 126.013535,250.964798 126.013535,250.964798 
	C126.479225,251.563751 126.944916,252.162689 127.673416,252.899414 
z"/>
<path fill="#F48C51" opacity="1.000000" stroke="none" 
	d="
M30.652264,377.041595 
	C33.035675,376.955353 35.091797,377.006256 37.506866,377.076904 
	C39.481907,380.797607 41.098011,384.498627 42.980721,388.810181 
	C37.268250,388.810181 32.864532,388.810181 27.492489,388.810181 
	C28.487251,384.725250 29.406113,380.951996 30.652264,377.041595 
z"/>
<path fill="#FEFEFE" opacity="1.000000" stroke="none" 
	d="
M197.001740,308.685364 
	C196.927490,310.275757 196.853256,311.405090 196.779007,312.534454 
	C196.609360,312.529205 196.439728,312.523987 196.270081,312.518768 
	C196.270081,291.497406 196.270081,270.476013 196.270081,249.454651 
	C196.513962,249.453018 196.757858,249.451401 197.001740,249.449768 
	C197.001740,269.041290 197.001740,288.632782 197.001740,308.685364 
z"/>
<path fill="#D67C49" opacity="1.000000" stroke="none" 
	d="
M391.795898,303.946899 
	C392.618500,305.103516 393.269806,306.199646 394.366394,308.045105 
	C374.414520,316.363800 353.932953,317.441254 332.775787,317.056396 
	C332.256042,314.020630 332.176605,310.962830 332.165649,307.462372 
	C334.146698,306.532166 336.122162,306.213226 337.960815,305.527527 
	C345.610199,302.674683 352.204285,304.365753 358.200500,309.694275 
	C364.507050,315.298492 366.797791,315.102875 371.741486,308.300903 
	C373.378601,306.048401 374.696289,305.703674 377.042938,306.963257 
	C380.883087,309.024414 384.077881,307.994110 387.195557,304.213684 
	C389.021393,303.975006 390.141388,303.934052 391.261353,303.893097 
	C391.261353,303.893097 391.624603,303.886414 391.795898,303.946899 
z"/>
<path fill="#F38B51" opacity="1.000000" stroke="none" 
	d="
M391.005402,303.646240 
	C390.141388,303.934052 389.021393,303.975006 387.485718,304.019165 
	C388.296509,303.814697 389.522980,303.607025 391.005402,303.646240 
z"/>
<path fill="#F38B51" opacity="1.000000" stroke="none" 
	d="
M43.725418,226.100098 
	C43.798130,226.423874 43.642788,226.539688 43.235329,226.800079 
	C39.171085,226.773621 35.358963,226.602585 31.206730,226.183578 
	C35.168850,221.354034 35.168850,221.354034 43.725418,226.100098 
z"/>
<path fill="#000000" opacity="1.000000" stroke="none" 
	d="
M17.134476,219.124283 
	C18.156351,219.243271 19.072010,219.766663 19.680672,220.750885 
	C19.895628,221.819366 20.417578,222.427017 20.939526,223.034683 
	C20.939522,223.034683 20.997931,223.071686 21.028683,223.056274 
	C19.322321,224.096619 17.585207,225.152405 15.232971,226.582047 
	C15.955738,223.742416 16.491999,221.635559 17.134476,219.124283 
z"/>
<path fill="#F7B089" opacity="1.000000" stroke="none" 
	d="
M332.314880,215.864502 
	C332.261688,214.178284 332.208496,212.492065 332.220581,210.382782 
	C335.237701,212.079407 338.336304,214.033249 341.044067,216.428894 
	C341.772003,217.072922 341.310974,219.060837 341.395752,220.431839 
	C340.047302,220.250061 338.590210,220.326431 337.379608,219.817047 
	C336.052704,219.258759 334.953247,218.159988 333.354858,216.916016 
	C332.804474,216.251755 332.591064,216.028152 332.314880,215.864502 
z"/>
<path fill="#F7B089" opacity="1.000000" stroke="none" 
	d="
M376.541016,240.428680 
	C373.144745,242.496399 371.549591,241.419113 369.394379,235.846863 
	C369.684113,235.474731 369.973846,235.102600 370.263550,234.730484 
	C372.316254,236.521439 374.368927,238.312408 376.541016,240.428680 
z"/>
<path fill="#F7B089" opacity="1.000000" stroke="none" 
	d="
M341.831604,238.010040 
	C340.086639,240.398376 338.403992,242.445938 336.721313,244.493500 
	C335.796753,239.238739 338.981598,236.214523 341.831604,238.010040 
z"/>
<path fill="#F7B089" opacity="1.000000" stroke="none" 
	d="
M373.337036,195.501678 
	C375.267609,193.425461 377.047638,191.674438 378.827667,189.923431 
	C379.327667,190.335815 379.827637,190.748199 380.327637,191.160599 
	C378.727081,193.307281 377.126526,195.453964 375.525970,197.600647 
	C374.746124,197.009384 373.966309,196.418137 373.337036,195.501678 
z"/>
<path fill="#F7B089" opacity="1.000000" stroke="none" 
	d="
M334.220886,192.822601 
	C334.202850,191.719559 334.404022,190.896454 334.605194,190.073334 
	C337.629456,191.133820 340.533081,192.284668 339.361969,197.722092 
	C337.320435,195.805954 335.880280,194.454254 334.220886,192.822601 
z"/>
<path fill="#F7B089" opacity="1.000000" stroke="none" 
	d="
M366.716736,211.260132 
	C365.929504,209.955109 365.398315,208.912354 364.867126,207.869598 
	C365.339142,207.484909 365.811157,207.100220 366.283173,206.715530 
	C368.313141,208.634048 370.343109,210.552567 372.373047,212.471085 
	C371.926300,213.024063 371.479523,213.577042 371.032776,214.130020 
	C369.679443,213.260803 368.326111,212.391602 366.716736,211.260132 
z"/>
<path fill="#F7B089" opacity="1.000000" stroke="none" 
	d="
M388.983826,220.031799 
	C390.155914,220.215698 391.006805,220.572708 391.857727,220.929718 
	C390.430939,222.733231 389.004120,224.536728 387.577301,226.340240 
	C386.939087,225.913223 386.300873,225.486206 385.662659,225.059189 
	C386.662659,223.441101 387.662689,221.823013 388.983826,220.031799 
z"/>
<path fill="#D67C49" opacity="1.000000" stroke="none" 
	d="
M332.238525,216.160583 
	C332.591064,216.028152 332.804474,216.251755 333.061523,216.744080 
	C333.167969,216.952850 332.717804,217.012848 332.492493,217.035980 
	C332.232178,216.858292 332.197205,216.657486 332.238525,216.160583 
z"/>
<path fill="#FEFEFE" opacity="1.000000" stroke="none" 
	d="
M204.571457,168.943741 
	C204.121918,166.268494 204.076584,163.617126 204.046249,160.527557 
	C206.307327,157.942856 208.553436,155.796341 211.225754,153.557449 
	C215.217911,158.266541 220.050049,159.683319 223.659943,156.748322 
	C225.393723,155.338684 226.735199,153.446548 228.492401,152.020477 
	C234.101395,159.174561 240.218750,158.293976 245.200378,150.138580 
	C249.302307,155.655090 253.579895,157.175903 257.899292,154.288483 
	C259.883514,152.962082 261.298096,150.783585 263.177124,149.261780 
	C266.223297,153.547852 269.411346,156.755630 274.845612,153.972031 
	C279.153107,151.765610 282.267426,148.866760 281.046295,143.316681 
	C280.700470,141.744781 281.043671,140.021286 281.222656,138.127258 
	C283.626984,135.285690 285.879456,132.684189 288.131927,130.082672 
	C288.131927,130.082672 288.050690,130.057632 288.356750,130.351624 
	C290.794647,128.783859 292.926483,126.922089 295.058350,125.060318 
	C295.058350,125.060326 295.000000,125.001808 295.350220,125.011681 
	C296.803314,124.024696 297.906189,123.027840 299.364380,121.994675 
	C306.032654,130.042389 312.384277,138.096954 318.596741,146.257477 
	C319.196838,147.045746 319.053680,148.491165 319.054077,149.631592 
	C319.072937,204.461899 319.095276,259.292236 319.042603,314.122498 
	C319.034149,322.924957 313.498138,327.453583 304.736145,326.316315 
	C275.833740,322.564789 246.929779,318.824738 218.019257,315.136536 
	C208.224686,313.887024 205.028870,310.379456 204.996094,300.464417 
	C204.932770,281.303558 204.870941,262.142731 204.877747,242.748154 
	C204.947021,242.514435 204.932648,242.027115 204.932648,242.027115 
	C208.635513,240.182968 212.338364,238.338837 216.642288,236.195343 
	C225.693710,245.055206 233.452286,255.209656 238.300598,267.394989 
	C242.531952,278.029724 246.534927,288.755310 250.795334,300.162659 
	C250.643875,303.467468 250.335876,306.050446 250.027893,308.633392 
	C250.756470,308.846771 251.485031,309.060181 252.213593,309.273560 
	C253.162933,307.334503 254.360947,305.476379 255.022369,303.443634 
	C260.444672,286.779419 269.699463,273.597412 286.984650,267.456299 
	C288.337250,266.975769 289.404327,265.691681 290.604095,264.781006 
	C289.055023,264.184204 287.505951,263.587402 285.956879,262.990601 
	C283.419128,256.519989 280.881348,250.049347 278.183441,242.855316 
	C278.352509,240.527344 278.547272,238.880768 279.033600,237.325333 
	C281.451813,229.591385 283.880280,221.859192 286.449097,214.174500 
	C287.410980,211.296982 286.901550,208.976654 283.966156,208.222458 
	C278.929932,206.928528 273.765015,206.135468 268.534607,205.108688 
	C267.751221,209.259201 267.066895,212.884766 266.386139,216.491577 
	C269.070374,217.252243 271.378723,217.906403 273.771027,218.584351 
	C272.476013,222.225052 271.289673,225.560226 270.103333,228.895401 
	C267.801727,225.849670 265.500122,222.803940 263.572205,220.252716 
	C264.512634,215.201004 265.411896,210.557114 266.229919,205.898956 
	C266.654114,203.483627 265.581604,202.490875 263.108643,201.912933 
	C250.111145,198.875275 237.438339,198.629807 225.128174,205.597961 
	C222.795715,201.772049 221.258133,197.913391 225.779266,194.070801 
	C228.024368,192.162628 226.907516,189.857269 224.303528,188.148712 
	C224.135773,175.540604 219.507446,170.908096 204.571457,168.943741 
z"/>
<path fill="#6C5436" opacity="1.000000" stroke="none" 
	d="
M204.808472,242.981873 
	C204.870941,262.142731 204.932770,281.303558 204.996094,300.464417 
	C205.028870,310.379456 208.224686,313.887024 218.019257,315.136536 
	C246.929779,318.824738 275.833740,322.564789 304.736145,326.316315 
	C313.498138,327.453583 319.034149,322.924957 319.042603,314.122498 
	C319.095276,259.292236 319.072937,204.461899 319.054077,149.631592 
	C319.053680,148.491165 319.196838,147.045746 318.596741,146.257477 
	C312.384277,138.096954 306.032654,130.042389 299.335815,121.648331 
	C298.920898,121.108696 298.889954,120.879097 298.859009,120.649498 
	C300.627716,119.094978 302.396454,117.540466 304.702881,116.105865 
	C305.394104,116.375221 305.547546,116.524666 305.460175,116.927956 
	C304.565918,118.471237 303.005066,120.385582 303.397186,120.955032 
	C308.194672,127.921738 313.278534,134.691223 318.733032,142.117355 
	C318.733032,129.583038 318.733032,118.109612 318.733032,106.395020 
	C317.803314,106.962257 317.238525,107.306839 316.442627,107.424210 
	C316.058746,107.044243 315.905914,106.891487 315.753113,106.738739 
	C316.843719,105.029800 317.934326,103.320862 319.025269,100.793060 
	C319.040009,93.987358 319.180786,87.997498 319.037903,82.014404 
	C318.844971,73.934570 313.219727,69.232567 305.157623,70.276642 
	C275.490021,74.118782 245.823700,77.970619 216.162506,81.861557 
	C208.681900,82.842850 205.118378,86.940262 205.013351,94.607498 
	C204.933624,100.427139 205.004868,106.248848 205.008911,112.069641 
	C203.619629,113.677597 202.230347,115.285545 200.512726,116.958305 
	C200.146744,108.533707 200.063705,100.044182 200.084900,91.554916 
	C200.103989,83.909897 203.933243,79.329170 211.502930,78.324936 
	C225.516785,76.465782 239.558899,74.819351 253.590347,73.093246 
	C270.923065,70.961037 288.238647,68.664345 305.603668,66.838631 
	C309.708344,66.407066 313.980896,67.572037 318.564697,67.953758 
	C319.239746,68.452370 319.526276,68.999817 320.064453,70.176941 
	C320.896942,70.862679 321.477844,70.918739 322.058716,70.974808 
	C322.058716,70.974808 322.000641,70.995544 321.654419,71.278412 
	C321.859802,74.631485 322.888641,77.701035 322.892853,80.771996 
	C322.984863,148.051025 323.019196,215.330292 322.920227,282.609314 
	C322.897919,297.760834 322.334503,312.911560 322.020172,328.062653 
	C322.020172,328.062653 321.994812,328.008850 321.790527,327.762085 
	C321.138275,328.002838 320.690308,328.490326 320.242340,328.977844 
	C316.299652,332.766052 311.643768,333.354492 306.376984,332.676666 
	C275.357483,328.684601 244.322433,324.811157 213.279678,321.003326 
	C203.811813,319.841949 200.072021,315.894257 200.065796,306.371735 
	C200.052414,285.892731 200.049576,265.413727 200.005280,244.467117 
	C201.115952,243.438354 202.263733,242.877182 203.817810,242.438263 
	C204.379944,242.754944 204.574738,242.895401 204.808472,242.981873 
z"/>
<path fill="#FEC8B7" opacity="1.000000" stroke="none" 
	d="
M270.113098,229.333618 
	C271.289673,225.560226 272.476013,222.225052 273.771027,218.584351 
	C271.378723,217.906403 269.070374,217.252243 266.386139,216.491577 
	C267.066895,212.884766 267.751221,209.259201 268.534607,205.108688 
	C273.765015,206.135468 278.929932,206.928528 283.966156,208.222458 
	C286.901550,208.976654 287.410980,211.296982 286.449097,214.174500 
	C283.880280,221.859192 281.451813,229.591385 279.033600,237.325333 
	C278.547272,238.880768 278.352509,240.527344 278.031555,242.533539 
	C276.391144,247.197052 274.910461,251.534988 273.028229,255.691086 
	C271.966248,258.035980 270.235779,260.076691 268.820526,262.263550 
	C267.892395,263.697693 266.989563,265.148193 265.802216,267.022705 
	C265.307831,265.804535 264.921051,264.851501 264.446198,263.681396 
	C263.585541,269.069489 260.072876,266.594391 257.461029,266.116669 
	C253.850098,265.456207 254.605453,262.660614 255.822418,260.755951 
	C257.462921,258.188477 259.779388,256.043152 261.871613,253.777496 
	C263.180939,252.359665 265.423584,251.266907 265.845306,249.660248 
	C267.565125,243.107925 268.744415,236.413757 270.113098,229.333618 
z"/>
<path fill="#E0DEDC" opacity="1.000000" stroke="none" 
	d="
M285.639099,263.150513 
	C287.505951,263.587402 289.055023,264.184204 290.604095,264.781006 
	C289.404327,265.691681 288.337250,266.975769 286.984650,267.456299 
	C269.699463,273.597412 260.444672,286.779419 255.022369,303.443634 
	C254.360947,305.476379 253.162933,307.334503 252.213593,309.273560 
	C251.485031,309.060181 250.756470,308.846771 250.027893,308.633392 
	C250.335876,306.050446 250.643875,303.467468 250.962799,300.484070 
	C253.581604,294.955109 255.884964,289.641876 258.860687,284.736481 
	C265.078613,274.486328 273.848297,267.175964 285.639099,263.150513 
z"/>
<path fill="#6C5436" opacity="1.000000" stroke="none" 
	d="
M200.444031,224.820892 
	C200.120926,217.674393 200.101318,210.428192 200.150818,202.738464 
	C201.746124,204.021210 203.272339,205.747482 204.905762,208.218292 
	C205.048233,212.975754 205.083511,216.988678 205.118805,221.001617 
	C203.661697,222.241470 202.204590,223.481323 200.444031,224.820892 
z"/>
<path fill="#FEFBF9" opacity="1.000000" stroke="none" 
	d="
M205.423035,220.878174 
	C205.083511,216.988678 205.048233,212.975754 205.067841,208.504807 
	C208.062927,209.738754 211.003128,211.430695 213.966507,213.496582 
	C211.235550,216.165268 208.481400,218.460007 205.423035,220.878174 
z"/>
<path fill="#6D5638" opacity="1.000000" stroke="none" 
	d="
M204.877747,242.748154 
	C204.574738,242.895401 204.379944,242.754944 204.134537,242.403778 
	C204.044968,242.247055 204.470535,242.063278 204.701599,242.045197 
	C204.932648,242.027115 204.947021,242.514435 204.877747,242.748154 
z"/>
<path fill="#FEFDFD" opacity="1.000000" stroke="none" 
	d="
M205.459167,112.113884 
	C205.004868,106.248848 204.933624,100.427139 205.013351,94.607498 
	C205.118378,86.940262 208.681900,82.842850 216.162506,81.861557 
	C245.823700,77.970619 275.490021,74.118782 305.157623,70.276642 
	C313.219727,69.232567 318.844971,73.934570 319.037903,82.014404 
	C319.180786,87.997498 319.040009,93.987358 318.960999,100.431549 
	C293.626160,103.437523 268.357178,105.999290 243.085037,108.529182 
	C230.696228,109.769363 218.301468,110.950348 205.459167,112.113884 
z"/>
<path fill="#FEFBF9" opacity="1.000000" stroke="none" 
	d="
M244.533051,139.099365 
	C256.993378,128.850876 269.058502,118.050964 282.142578,108.672707 
	C286.347565,105.658707 293.240662,106.395073 298.903961,105.415672 
	C299.104828,105.829315 299.305695,106.242966 299.506592,106.656609 
	C287.440399,116.569550 275.374207,126.482498 262.962341,136.728836 
	C262.616669,137.062225 262.237518,137.156128 261.806702,137.158661 
	C255.908752,137.779877 250.441605,138.398575 244.864105,139.037918 
	C244.753784,139.058578 244.533035,139.099350 244.533051,139.099365 
z"/>
<path fill="#FEFBF9" opacity="1.000000" stroke="none" 
	d="
M212.033661,141.094330 
	C223.788879,131.568314 235.441559,121.910118 247.393845,112.638138 
	C249.545609,110.968918 252.889252,110.658020 255.758453,110.140472 
	C258.795868,109.592575 261.923798,109.546593 266.088501,109.188957 
	C253.231857,119.643959 241.152512,129.466843 228.637589,139.687317 
	C227.946182,140.345261 227.690384,140.605621 227.015259,140.901138 
	C221.741852,140.988983 216.887772,141.041656 212.033661,141.094330 
z"/>
<path fill="#FEFBF9" opacity="1.000000" stroke="none" 
	d="
M194.910156,143.708496 
	C190.355927,143.949875 185.944138,143.973877 181.027954,143.972382 
	C192.438126,134.376999 204.044830,124.376884 216.453598,115.497643 
	C220.208817,112.810539 226.184921,113.227127 231.143738,112.222076 
	C231.399841,112.730652 231.655945,113.239227 231.912048,113.747803 
	C220.030960,123.293472 208.149857,132.839127 196.098511,142.673798 
	C195.636383,143.138901 195.344513,143.315018 194.910156,143.708496 
z"/>
<path fill="#D67C49" opacity="1.000000" stroke="none" 
	d="
M262.237488,137.156128 
	C262.237518,137.156128 262.616669,137.062225 262.808380,137.024231 
	C268.414551,136.338196 273.829010,135.690170 279.745880,135.346893 
	C280.522491,136.556885 280.796661,137.462097 281.070862,138.367325 
	C281.043671,140.021286 280.700470,141.744781 281.046295,143.316681 
	C282.267426,148.866760 279.153107,151.765610 274.845612,153.972031 
	C269.411346,156.755630 266.223297,153.547852 263.139771,148.855698 
	C262.676758,144.504898 262.457123,140.830521 262.237488,137.156128 
z"/>
<path fill="#D67C49" opacity="1.000000" stroke="none" 
	d="
M227.434570,140.865967 
	C227.690384,140.605621 227.946182,140.345261 228.453140,139.976166 
	C233.702576,139.589630 238.700851,139.311829 244.116089,139.066696 
	C244.533035,139.099350 244.753784,139.058578 244.759155,139.484283 
	C244.816345,143.252518 244.868164,146.595062 244.919968,149.937607 
	C240.218750,158.293976 234.101395,159.174561 228.432220,151.580841 
	C227.900833,147.551086 227.667694,144.208527 227.434570,140.865967 
z"/>
<path fill="#E0DEDC" opacity="1.000000" stroke="none" 
	d="
M227.015259,140.901138 
	C227.667694,144.208527 227.900833,147.551086 228.194153,151.333282 
	C226.735199,153.446548 225.393723,155.338684 223.659943,156.748322 
	C220.050049,159.683319 215.217911,158.266541 211.387939,153.259918 
	C211.057526,149.681808 210.991150,146.308838 210.863434,142.482483 
	C211.045532,141.773529 211.288971,141.517960 211.783051,141.178375 
	C216.887772,141.041656 221.741852,140.988983 227.015259,140.901138 
z"/>
<path fill="#6D5638" opacity="1.000000" stroke="none" 
	d="
M281.222656,138.127258 
	C280.796661,137.462097 280.522491,136.556885 280.169861,135.345322 
	C282.537140,133.355331 284.982819,131.671677 287.780212,130.035355 
	C285.879456,132.684189 283.626984,135.285690 281.222656,138.127258 
z"/>
<path fill="#6D5638" opacity="1.000000" stroke="none" 
	d="
M294.719971,124.891678 
	C292.926483,126.922089 290.794647,128.783859 288.360138,130.394012 
	C290.165527,128.335953 292.273529,126.529495 294.719971,124.891678 
z"/>
<path fill="#6D5638" opacity="1.000000" stroke="none" 
	d="
M298.534515,120.785362 
	C298.889954,120.879097 298.920898,121.108696 298.980469,121.684639 
	C297.906189,123.027840 296.803314,124.024696 295.378906,125.042526 
	C296.108215,123.682739 297.159119,122.301987 298.534515,120.785362 
z"/>
<path fill="#6C5436" opacity="1.000000" stroke="none" 
	d="
M312.574554,109.561386 
	C313.441040,108.693100 314.307495,107.824814 315.463531,106.847626 
	C315.905914,106.891487 316.058746,107.044243 316.234009,107.654251 
	C315.265411,108.844429 314.274323,109.577339 313.108093,110.121109 
	C312.813477,109.808441 312.694031,109.684906 312.574554,109.561386 
z"/>
<path fill="#6C5436" opacity="1.000000" stroke="none" 
	d="
M306.573639,114.490173 
	C307.431824,113.636116 308.290009,112.782059 309.666351,112.050568 
	C310.335938,112.320808 310.487366,112.468498 310.427917,112.844986 
	C309.224396,113.807106 308.231750,114.540421 307.073853,115.076904 
	C306.796936,114.750092 306.685303,114.620125 306.573639,114.490173 
z"/>
<path fill="#6C5436" opacity="1.000000" stroke="none" 
	d="
M305.011292,116.000763 
	C305.209290,115.420044 305.636627,115.064339 306.318817,114.599396 
	C306.685303,114.620125 306.796936,114.750092 306.958893,115.317871 
	C306.573120,116.061821 306.137085,116.367966 305.701019,116.674103 
	C305.547546,116.524666 305.394104,116.375221 305.011292,116.000763 
z"/>
<path fill="#6C5436" opacity="1.000000" stroke="none" 
	d="
M309.957825,111.951111 
	C310.159424,111.381210 310.587677,111.033333 311.445312,110.786118 
	C311.874695,110.886772 312.180420,111.189194 312.066833,111.433769 
	C311.515076,111.990959 311.076935,112.303566 310.638794,112.616180 
	C310.487366,112.468498 310.335938,112.320808 309.957825,111.951111 
z"/>
<path fill="#6C5436" opacity="1.000000" stroke="none" 
	d="
M311.722168,110.735184 
	C311.703339,110.278831 311.904419,110.028198 312.373779,109.696533 
	C312.694031,109.684906 312.813477,109.808441 313.000488,110.347916 
	C312.772125,110.905647 312.476288,111.047417 312.180420,111.189194 
	C312.180420,111.189194 311.874695,110.886772 311.722168,110.735184 
z"/>
<path fill="#FEFDFD" opacity="1.000000" stroke="none" 
	d="
M322.361969,328.006073 
	C322.334503,312.911560 322.897919,297.760834 322.920227,282.609314 
	C323.019196,215.330292 322.984863,148.051025 322.892853,80.771996 
	C322.888641,77.701035 321.859802,74.631485 321.666199,71.249916 
	C322.823975,72.467751 323.623718,73.996956 324.553955,76.262665 
	C324.683960,157.312622 324.682556,237.626083 324.689423,317.939545 
	C324.689575,319.601868 324.785736,321.264160 324.837097,322.926483 
	C324.125977,324.600830 323.414886,326.275146 322.361969,328.006073 
z"/>
<path fill="#684F30" opacity="1.000000" stroke="none" 
	d="
M325.169800,323.033386 
	C324.785736,321.264160 324.689575,319.601868 324.689423,317.939545 
	C324.682556,237.626083 324.683960,157.312622 324.752197,76.539810 
	C325.515167,76.180565 326.777802,76.186058 326.812836,76.396202 
	C327.029022,77.693008 326.996033,79.035919 326.996094,80.363510 
	C327.000458,159.882614 327.007690,239.401733 326.937653,318.920776 
	C326.936432,320.327728 326.001678,321.733795 325.169800,323.033386 
z"/>
<path fill="#D77D4A" opacity="1.000000" stroke="none" 
	d="
M332.630951,271.502228 
	C335.125305,271.229401 337.609955,271.256989 340.540405,271.379883 
	C338.537323,271.983124 336.088348,272.491119 333.184509,272.997131 
	C332.693481,272.597687 332.657349,272.200195 332.630951,271.502228 
z"/>
<path fill="#FEFDFD" opacity="1.000000" stroke="none" 
	d="
M320.505005,328.966125 
	C320.690308,328.490326 321.138275,328.002838 321.818665,327.771667 
	C322.096588,328.207703 322.142059,328.387390 322.003174,328.775208 
	C321.468414,328.973694 321.118042,328.964050 320.505005,328.966125 
z"/>
<path fill="#FEFDFD" opacity="1.000000" stroke="none" 
	d="
M322.004150,70.649521 
	C321.477844,70.918739 320.896942,70.862679 320.182800,70.462982 
	C320.682861,70.187653 321.316223,70.255943 322.004150,70.649521 
z"/>
<path fill="#FBB39E" opacity="1.000000" stroke="none" 
	d="
M16.196732,185.431747 
	C18.454832,184.277878 20.953571,183.405762 23.726227,182.438065 
	C25.141291,177.791595 23.962259,173.628372 20.361073,170.008713 
	C18.227350,167.864044 15.016911,166.069305 19.484180,162.659149 
	C21.356129,161.230164 21.337891,157.205872 23.231462,155.955917 
	C25.379850,154.537781 28.699753,154.833023 31.526823,154.545410 
	C32.281487,154.468628 33.085629,155.029602 33.885693,155.219086 
	C36.245159,155.777924 40.386696,155.847626 40.657192,156.913879 
	C41.585655,160.573669 41.759800,164.691742 41.050034,168.411621 
	C40.528080,171.147186 38.373600,173.684326 36.591572,176.041458 
	C33.458504,180.185699 34.195858,182.869064 39.037457,184.186447 
	C41.275337,184.795364 43.451572,185.630829 45.858070,186.669708 
	C37.432514,190.224609 28.794916,188.612274 20.171392,186.977264 
	C18.892815,186.734848 17.680397,186.143463 16.196732,185.431747 
z"/>
<path fill="#D67C48" opacity="1.000000" stroke="none" 
	d="
M20.879725,222.744507 
	C20.417578,222.427017 19.895628,221.819366 19.659559,221.059235 
	C20.236933,221.422623 20.528427,221.938477 20.879725,222.744507 
z"/>
<path fill="#FAD7C3" opacity="1.000000" stroke="none" 
	d="
M126.017014,250.993805 
	C128.000854,247.684631 132.848877,246.477478 137.414780,249.087051 
	C133.894730,249.699173 130.374680,250.311295 126.434082,250.944107 
	C126.013535,250.964798 125.998749,251.001511 126.017014,250.993805 
z"/>
<path fill="#E0DEDC" opacity="1.000000" stroke="none" 
	d="
M245.200378,150.138580 
	C244.868164,146.595062 244.816345,143.252518 244.869492,139.463623 
	C250.441605,138.398575 255.908752,137.779877 261.806702,137.158661 
	C262.457123,140.830521 262.676758,144.504898 262.933685,148.585388 
	C261.298096,150.783585 259.883514,152.962082 257.899292,154.288483 
	C253.579895,157.175903 249.302307,155.655090 245.200378,150.138580 
z"/>
<path fill="#FCFBFA" opacity="1.000000" stroke="none" 
	d="
M312.066833,111.433762 
	C312.476288,111.047417 312.772125,110.905647 313.175598,110.537064 
	C314.274323,109.577339 315.265411,108.844429 316.465118,107.881470 
	C317.238525,107.306839 317.803314,106.962257 318.733032,106.395020 
	C318.733032,118.109612 318.733032,129.583038 318.733032,142.117355 
	C313.278534,134.691223 308.194672,127.921738 303.397186,120.955032 
	C303.005066,120.385582 304.565918,118.471237 305.460175,116.927956 
	C306.137085,116.367966 306.573120,116.061821 307.124146,115.514709 
	C308.231750,114.540421 309.224396,113.807106 310.427917,112.844986 
	C311.076935,112.303566 311.515076,111.990959 312.066833,111.433762 
z"/>
</svg>